<svg width="24" height="24" viewBox="0 0 24 24" fill="none" xmlns="http://www.w3.org/2000/svg">
<path d="M12.2309 20.2811C11.1202 21.3859 9.62142 22.0125 8.05486 22.027C6.4883 22.0414 4.97822 21.4426 3.84732 20.3584C2.71642 19.2743 2.05441 17.7908 2.00275 16.225C1.9511 14.6593 2.51391 13.1354 3.5709 11.9791L3.75989 11.7821L12.5599 2.98407L12.5959 2.95407C13.281 2.3372 14.1707 1.99647 15.0926 1.99786C16.0145 1.99925 16.9032 2.34265 17.5864 2.96158C18.2697 3.58052 18.699 4.43095 18.7913 5.34825C18.8836 6.26555 18.6322 7.18445 18.0859 7.92707C18.061 7.97254 18.0326 8.016 18.0009 8.05707L17.9469 8.11707L17.8599 8.20507L17.7189 8.35307L17.7159 8.35007L10.2799 15.8041C10.153 15.9312 9.98474 16.0086 9.80563 16.0222C9.62652 16.0358 9.44848 15.9847 9.30389 15.8781L9.21989 15.8051C9.09273 15.6782 9.01531 15.5099 9.00173 15.3308C8.98815 15.1517 9.03931 14.9737 9.14589 14.8291L9.21789 14.7451L16.8129 7.13207C17.1644 6.70078 17.342 6.15367 17.3108 5.59815C17.2796 5.04263 17.0418 4.51884 16.6442 4.12963C16.2466 3.74042 15.7179 3.51391 15.1618 3.49456C14.6058 3.47521 14.0626 3.66443 13.6389 4.02507L4.80589 12.8551C3.98743 13.6875 3.52434 14.8054 3.51434 15.9728C3.50433 17.1402 3.94819 18.2658 4.75227 19.1122C5.55635 19.9585 6.65777 20.4595 7.82413 20.5093C8.9905 20.5591 10.1306 20.1538 11.0039 19.3791L11.1719 19.2191L11.1839 19.2051L20.7209 9.66907C20.8547 9.53488 21.0344 9.45632 21.2238 9.4492C21.4132 9.44208 21.5982 9.50692 21.7417 9.63068C21.8853 9.75445 21.9766 9.92796 21.9974 10.1163C22.0182 10.3047 21.9669 10.494 21.8539 10.6461L21.7809 10.7301L12.2309 20.2811Z" fill="#1C1C1C"/>
</svg>
