<svg width="82" height="40" viewBox="0 0 82 40" fill="none" xmlns="http://www.w3.org/2000/svg">
<path d="M15.9248 13.8682L0 30.7305L17.7988 16.6787L27.207 15.8418C26.5804 17.2419 26.2295 18.7927 26.2295 20.4258C26.2296 26.6338 31.2627 31.6668 37.4707 31.667C43.6789 31.667 48.7118 26.6339 48.7119 20.4258C48.7119 18.0813 47.9936 15.9049 46.7656 14.1035L59.9531 12.9316L74.0039 22.2988L76.8145 18.5518L60.8896 9.18457L15.9248 13.8682Z" fill="#1C1C1C"/>
<circle cx="61.9443" cy="20" r="20" fill="#1C1C1C"/>
<mask id="mask0_3525_534" style="mask-type:alpha" maskUnits="userSpaceOnUse" x="41" y="0" width="41" height="40">
<circle cx="61.9443" cy="20" r="20" fill="black"/>
</mask>
<g mask="url(#mask0_3525_534)">
<path d="M15.9248 13.8682L0 30.7305L17.7988 16.6787L27.207 15.8418C26.5804 17.2419 26.2295 18.7927 26.2295 20.4258C26.2296 26.6338 31.2627 31.6668 37.4707 31.667C43.6789 31.667 48.7118 26.6339 48.7119 20.4258C48.7119 18.0813 47.9936 15.9049 46.7656 14.1035L59.9531 12.9316L74.0039 22.2988L76.8145 18.5518L60.8896 9.18457L15.9248 13.8682Z" fill="white"/>
</g>
</svg>
