<svg width="277" height="40" viewBox="0 0 277 40" fill="none" xmlns="http://www.w3.org/2000/svg">
<path d="M110.191 19.84C110.951 20.92 111.551 21.92 111.071 23.44C110.071 26.44 106.231 28.84 103.711 30.4L103.271 30.68C103.231 30.68 103.231 30.72 103.191 30.72C102.991 31.32 102.471 31.84 101.871 32.08C101.111 32.32 100.351 32.12 99.7905 31.56C98.6305 30.36 97.8705 28.64 97.4705 26.28C97.3905 25.8 97.2705 25.32 97.1905 24.76C97.0705 24.36 96.9905 23.96 96.9105 23.56C96.7905 23.56 96.6705 23.6 96.5505 23.6L96.3105 23.64C95.6705 23.72 95.0705 23.84 94.3505 23.84C93.6705 26.68 92.9505 29.52 92.0305 32.24C91.8305 32.92 91.1505 33.4 90.4305 33.4C90.3905 33.4 90.3505 33.4 90.3105 33.4C89.5905 33.32 89.0705 32.88 88.9105 32.16C88.1905 28.36 89.3505 25.08 90.6305 21.6L90.7505 21.24C90.9905 20.56 91.2305 19.84 91.4305 19.12C92.1505 16.84 92.9505 14.24 94.4705 12.56C94.9105 12.04 95.6305 11.96 96.2305 12.28C96.8705 12.64 97.1505 13.32 96.9505 13.96C96.2705 16.16 95.6705 18.4 95.1505 20.56C95.3105 20.56 95.4705 20.52 95.6305 20.48L96.5905 20.36C96.6305 20.36 96.6705 20.36 96.7105 20.36C97.3905 17.36 101.471 15.28 104.191 13.88C104.671 13.64 105.111 13.4 105.471 13.2C105.871 13 106.351 13.12 106.631 13.48C106.911 13.84 106.871 14.32 106.551 14.64C106.511 14.68 106.431 14.76 106.391 14.8C106.871 15.44 107.391 16.12 107.871 16.76C108.671 17.76 109.431 18.8 110.191 19.84ZM128.708 9.08C129.388 9.24 129.788 9.88 129.668 10.56C128.588 18.12 126.228 25.88 123.908 33.16C123.708 33.8 123.108 34.2 122.468 34.2C122.388 34.2 122.308 34.2 122.188 34.16C121.468 34.04 120.988 33.44 121.028 32.72C121.028 32.28 121.068 31.84 121.108 31.4C121.028 31.4 120.988 31.4 120.948 31.4C118.988 31.24 117.748 29.68 116.668 28.32C116.468 28.08 116.268 27.84 116.068 27.6C115.508 27 114.948 26.36 114.388 25.76C113.348 24.64 112.308 23.48 111.388 22.24C111.028 21.76 110.988 21.04 111.308 20.36C112.308 18.24 122.388 11.16 126.548 11.68C126.788 11.08 126.988 10.48 127.188 9.92C127.428 9.28 128.068 8.92 128.708 9.08ZM115.388 21.16C115.428 21.2 115.468 21.28 115.548 21.32C115.548 21.2 115.588 21.04 115.668 20.92C115.548 21 115.468 21.08 115.388 21.16ZM146.938 13.48C147.618 13.76 148.138 14.32 148.298 14.96C148.458 15.6 148.218 16.24 147.658 16.68L147.338 16.92C147.138 18.24 146.738 19.56 146.338 20.72C146.178 21.16 146.018 21.6 145.938 22L145.458 23.52C144.658 26.44 143.778 29.4 142.578 32.24C142.378 32.76 141.898 33.04 141.378 33.04C141.298 33.04 141.218 33.04 141.138 33.04C140.418 32.92 139.858 32.32 139.818 31.6C139.538 27.76 140.738 24.72 141.978 21.52C142.058 21.28 142.138 21.08 142.218 20.84C138.378 23.76 134.738 26.6 131.538 30.2L131.458 30.36L131.338 30.72C131.258 31.16 130.898 31.52 130.458 31.68C130.058 31.84 129.618 31.8 129.258 31.56C126.818 29.84 127.898 26.48 128.618 24.28L128.738 23.88C129.018 22.92 129.338 21.96 129.618 20.96C130.458 18 131.298 15 132.698 12.4C132.978 11.88 133.498 11.64 134.058 11.72C134.618 11.84 135.138 12.36 135.178 12.96C135.538 15.6 134.698 18.44 134.018 20.92C133.898 21.32 133.778 21.72 133.658 22.08C134.538 21.16 135.498 20.28 136.618 19.4C137.018 19.08 137.418 18.72 137.898 18.32C140.058 16.48 142.738 14.24 145.378 13.52C145.418 13.44 145.458 13.4 145.498 13.36C145.698 13.12 145.978 13 146.298 13.08C146.578 13.08 146.818 13.24 146.938 13.48ZM147.818 5.16C148.418 5.64 148.658 6.56 148.338 7.24C147.658 8.84 146.178 10.44 145.098 11.48C144.378 12.16 142.538 13.8 140.738 14.12C140.578 14.12 140.378 14.16 140.218 14.16C139.058 14.16 137.978 13.52 137.098 12.36C136.658 11.8 136.218 11.12 135.898 10.48C135.818 10.28 135.778 10.08 135.738 9.88C135.698 9.72 135.658 9.52 135.618 9.48C135.378 9.16 135.378 8.76 135.538 8.4C135.738 8.04 136.098 7.76 136.498 7.76C137.258 7.8 137.658 8.04 138.018 8.36L138.378 8.64C139.378 9.48 139.818 9.8 140.778 9.32C141.858 8.76 142.818 7.88 143.818 7C144.538 6.32 145.258 5.68 146.058 5.12C146.618 4.72 147.298 4.76 147.818 5.16ZM162.726 11.84C162.926 12.36 162.806 12.92 162.406 13.24L162.246 13.36C162.046 13.52 161.846 13.6 161.606 13.6C161.046 14.04 159.886 14.88 157.486 16.56C156.006 17.6 154.366 18.72 153.086 19.64C153.646 20.16 154.166 20.76 154.686 21.36C155.166 21.88 155.606 22.4 156.086 22.84C156.406 23.2 156.766 23.52 157.126 23.84C158.966 25.6 160.846 27.4 161.806 29.96C162.046 30.68 161.846 31.4 161.286 31.88C160.926 32.2 160.406 32.4 159.926 32.4C159.606 32.4 159.326 32.32 159.046 32.2C157.126 31.16 155.686 29.6 154.246 28.08C153.846 27.64 153.446 27.2 153.046 26.8C152.446 26.2 151.886 25.44 151.246 24.64C150.326 23.4 149.326 22.16 148.406 21.52C147.766 21.08 147.406 20.44 147.406 19.72C147.366 19 147.726 18.32 148.366 17.88C149.926 16.8 151.686 15.96 153.366 15.12C154.366 14.64 155.326 14.2 156.246 13.68C156.646 13.44 157.086 13.16 157.526 12.88C158.726 12.08 160.046 11.24 161.526 11.08C162.046 11.04 162.526 11.32 162.726 11.84ZM180.583 9.08C181.263 9.24 181.663 9.88 181.543 10.56C180.463 18.12 178.103 25.88 175.783 33.16C175.583 33.8 174.983 34.2 174.343 34.2C174.263 34.2 174.183 34.2 174.063 34.16C173.343 34.04 172.863 33.44 172.903 32.72C172.903 32.28 172.943 31.84 172.983 31.4C172.903 31.4 172.863 31.4 172.823 31.4C170.863 31.24 169.623 29.68 168.543 28.32C168.343 28.08 168.143 27.84 167.943 27.6C167.383 27 166.823 26.36 166.263 25.76C165.223 24.64 164.183 23.48 163.263 22.24C162.903 21.76 162.863 21.04 163.183 20.36C164.183 18.24 174.263 11.16 178.423 11.68C178.663 11.08 178.863 10.48 179.063 9.92C179.303 9.28 179.943 8.92 180.583 9.08ZM167.263 21.16C167.303 21.2 167.343 21.28 167.423 21.32C167.423 21.2 167.463 21.04 167.543 20.92C167.423 21 167.343 21.08 167.263 21.16ZM202.973 12.28C203.253 14.48 202.653 16.68 202.093 18.8C201.813 19.76 201.573 20.68 201.413 21.56C201.293 22.44 201.173 23.36 201.093 24.36C200.773 27.12 200.493 30.04 198.773 32.16C198.533 32.44 198.173 32.6 197.813 32.6C197.373 32.6 196.933 32.36 196.653 32C194.493 29.08 195.653 24.72 196.533 21.56L196.613 21.28C196.573 21.28 196.573 21.28 196.573 21.32C196.213 21.72 195.853 22.16 195.493 22.56C194.853 23.24 194.293 23.88 193.853 24.6C193.573 25.04 193.453 25.52 193.293 26.08C193.133 26.64 192.933 27.28 192.573 27.88C192.213 28.48 191.533 28.84 190.813 28.8C190.133 28.76 189.573 28.4 189.293 27.84C188.813 26.84 188.653 25.68 188.533 24.56C188.493 23.88 188.413 23.2 188.253 22.64C188.053 21.92 187.813 21.2 187.573 20.48C187.453 20.04 187.293 19.6 187.173 19.16C186.933 19.96 186.693 20.68 186.493 21.4C186.213 22.24 185.933 23.16 185.693 24.04C184.813 26.96 183.933 29.96 182.533 32.56C182.213 33.12 181.693 33.44 181.133 33.44C181.013 33.44 180.893 33.4 180.773 33.4C179.973 33.2 179.373 32.56 179.333 31.76C178.933 26.88 180.853 22.4 182.533 18.48C182.653 18.16 182.813 17.72 183.013 17.2C183.733 15.04 184.773 12.08 186.493 11.48C187.133 11.28 187.813 11.52 188.213 12.08C188.373 12.28 188.493 12.52 188.533 12.76L188.773 12.88L188.613 13.52C188.573 13.6 188.573 13.64 188.533 13.72C189.613 15.08 190.133 16.68 190.613 18.2C190.733 18.6 190.853 19 191.013 19.4C191.213 20 191.373 20.56 191.573 21.12C192.013 20.52 192.533 19.96 193.133 19.32C194.773 17.52 196.573 15.8 198.973 13.8C199.293 13 199.653 12.28 200.013 11.6C200.333 11 200.933 10.72 201.573 10.84C202.293 10.96 202.853 11.56 202.973 12.28ZM218.279 12.48C218.759 12.6 219.079 13 219.079 13.48C219.079 16.72 217.439 20.04 215.999 22.96C215.599 23.72 215.239 24.48 214.879 25.24C214.559 25.96 214.239 26.68 213.919 27.44C213.919 27.96 213.759 28.44 213.479 28.84C213.399 28.92 213.319 29.04 213.199 29.12C211.679 32.64 209.919 36.32 207.399 39C207.039 39.4 206.479 39.6 205.919 39.6C205.559 39.6 205.239 39.52 204.919 39.36C204.079 39 203.639 38.24 203.759 37.4C204.199 33.6 206.359 30.36 208.479 27.2L208.959 26.48C208.039 25.2 207.199 23.8 206.399 22.12C204.999 19.28 203.479 16.12 204.199 12.84C204.319 12.24 204.799 11.84 205.399 11.8C206.079 11.72 206.719 12.16 206.959 12.76L206.999 12.92C208.279 16.36 209.439 19.64 211.359 22.6C213.639 19 215.479 15.88 217.119 12.96C217.359 12.56 217.839 12.36 218.279 12.48ZM232.956 19.44C233.356 20.12 233.396 21.08 232.996 21.84C232.676 22.56 232.076 23.04 231.356 23.12C229.956 23.36 228.396 24.6 226.996 25.76C226.476 26.12 226.036 26.52 225.596 26.8C224.716 27.44 223.876 28.04 222.996 28.68L221.636 29.68C221.236 32.24 220.636 35.28 219.436 38.44C219.196 39.16 218.556 39.6 217.836 39.6C217.756 39.6 217.676 39.6 217.596 39.6C216.796 39.48 216.196 38.84 216.116 38C215.956 35.8 216.156 33.36 216.796 30.08C216.756 29.72 216.836 29.4 216.956 29.12H216.996C217.196 28.04 217.476 26.96 217.716 25.92L218.396 22.92C219.236 19.16 220.076 15.28 221.596 11.84C221.756 11.4 222.196 11.16 222.676 11.2C223.156 11.28 223.596 11.72 223.676 12.24C223.716 12.6 223.716 12.92 223.756 13.28C224.196 13.56 224.636 13.84 225.116 14.12C226.476 14.96 227.796 15.76 229.236 16.48C230.476 17.12 232.036 17.88 232.956 19.44ZM250.232 9.08C250.912 9.24 251.312 9.88 251.192 10.56C250.112 18.12 247.752 25.88 245.432 33.16C245.232 33.8 244.632 34.2 243.992 34.2C243.912 34.2 243.832 34.2 243.712 34.16C242.992 34.04 242.512 33.44 242.552 32.72C242.552 32.28 242.592 31.84 242.632 31.4C242.552 31.4 242.512 31.4 242.472 31.4C240.512 31.24 239.272 29.68 238.192 28.32C237.992 28.08 237.792 27.84 237.592 27.6C237.032 27 236.472 26.36 235.912 25.76C234.872 24.64 233.832 23.48 232.912 22.24C232.552 21.76 232.512 21.04 232.832 20.36C233.832 18.24 243.912 11.16 248.072 11.68C248.312 11.08 248.512 10.48 248.712 9.92C248.952 9.28 249.592 8.92 250.232 9.08ZM236.912 21.16C236.952 21.2 236.992 21.28 237.072 21.32C237.072 21.2 237.112 21.04 237.192 20.92C237.072 21 236.992 21.08 236.912 21.16ZM268.461 13.48C269.141 13.76 269.661 14.32 269.821 14.96C269.981 15.6 269.741 16.24 269.181 16.68L268.861 16.92C268.661 18.24 268.261 19.56 267.861 20.72C267.701 21.16 267.541 21.6 267.461 22L266.981 23.52C266.181 26.44 265.301 29.4 264.101 32.24C263.901 32.76 263.421 33.04 262.901 33.04C262.821 33.04 262.741 33.04 262.661 33.04C261.941 32.92 261.381 32.32 261.341 31.6C261.061 27.76 262.261 24.72 263.501 21.52C263.581 21.28 263.661 21.08 263.741 20.84C259.901 23.76 256.261 26.6 253.061 30.2L252.981 30.36L252.861 30.72C252.781 31.16 252.421 31.52 251.981 31.68C251.581 31.84 251.141 31.8 250.781 31.56C248.341 29.84 249.421 26.48 250.141 24.28L250.261 23.88C250.541 22.92 250.861 21.96 251.141 20.96C251.981 18 252.821 15 254.221 12.4C254.501 11.88 255.021 11.64 255.581 11.72C256.141 11.84 256.661 12.36 256.701 12.96C257.061 15.6 256.221 18.44 255.541 20.92C255.421 21.32 255.301 21.72 255.181 22.08C256.061 21.16 257.021 20.28 258.141 19.4C258.541 19.08 258.941 18.72 259.421 18.32C261.581 16.48 264.261 14.24 266.901 13.52C266.941 13.44 266.981 13.4 267.021 13.36C267.221 13.12 267.501 13 267.821 13.08C268.101 13.08 268.341 13.24 268.461 13.48ZM269.341 5.16C269.941 5.64 270.181 6.56 269.861 7.24C269.181 8.84 267.701 10.44 266.621 11.48C265.901 12.16 264.061 13.8 262.261 14.12C262.101 14.12 261.901 14.16 261.741 14.16C260.581 14.16 259.501 13.52 258.621 12.36C258.181 11.8 257.741 11.12 257.421 10.48C257.341 10.28 257.301 10.08 257.261 9.88C257.221 9.72 257.181 9.52 257.141 9.48C256.901 9.16 256.901 8.76 257.061 8.4C257.261 8.04 257.621 7.76 258.021 7.76C258.781 7.8 259.181 8.04 259.541 8.36L259.901 8.64C260.901 9.48 261.341 9.8 262.301 9.32C263.381 8.76 264.341 7.88 265.341 7C266.061 6.32 266.781 5.68 267.581 5.12C268.141 4.72 268.821 4.76 269.341 5.16Z" fill="#1C1C1C"/>
<path d="M15.9248 13.8682L0 30.7305L17.7988 16.6787L27.207 15.8418C26.5804 17.2419 26.2295 18.7927 26.2295 20.4258C26.2296 26.6338 31.2627 31.6668 37.4707 31.667C43.6789 31.667 48.7118 26.6339 48.7119 20.4258C48.7119 18.0813 47.9936 15.9049 46.7656 14.1035L59.9531 12.9316L74.0039 22.2988L76.8145 18.5518L60.8896 9.18457L15.9248 13.8682Z" fill="#1C1C1C"/>
<circle cx="61.9443" cy="20" r="20" fill="#1C1C1C"/>
<mask id="mask0_3528_881" style="mask-type:alpha" maskUnits="userSpaceOnUse" x="41" y="0" width="41" height="40">
<circle cx="61.9443" cy="20" r="20" fill="black"/>
</mask>
<g mask="url(#mask0_3528_881)">
<path d="M15.9248 13.8682L0 30.7305L17.7988 16.6787L27.207 15.8418C26.5804 17.2419 26.2295 18.7927 26.2295 20.4258C26.2296 26.6338 31.2627 31.6668 37.4707 31.667C43.6789 31.667 48.7118 26.6339 48.7119 20.4258C48.7119 18.0813 47.9936 15.9049 46.7656 14.1035L59.9531 12.9316L74.0039 22.2988L76.8145 18.5518L60.8896 9.18457L15.9248 13.8682Z" fill="#F0F0F0"/>
</g>
</svg>
