<svg width="698" height="123" viewBox="0 0 698 123" fill="none" xmlns="http://www.w3.org/2000/svg">
<path d="M46.2734 18.5628C53.3106 18.1102 60.3479 17.6575 67.3851 17.2048C67.3851 31.0379 67.3851 44.8078 67.3851 58.5144C67.3851 66.4228 65.8587 73.5923 62.8136 79.933C59.8139 86.1539 55.8016 90.917 50.7768 94.2121C45.7445 97.3675 40.2814 98.6357 34.3801 98.0765C27.897 97.4574 22.0486 95.1907 16.8274 91.3164C11.6061 87.5419 7.49563 82.7589 4.49586 76.9474C1.54144 71.1559 0.0453364 64.7952 0 57.7954C0 45.7198 0 33.6141 0 21.4786C7.17827 21.0658 14.3591 20.6265 21.5424 20.1605C21.5424 32.8087 21.5424 45.3536 21.5424 57.7954C21.5424 63.1176 22.6984 67.0918 25.0257 69.718C27.3908 72.3142 30.5341 73.7121 34.4557 73.8919C37.6444 74.0416 40.4023 72.8634 42.722 70.3071C45.0947 67.661 46.2734 63.5869 46.2734 58.1249C46.2734 45.0175 46.2734 31.8301 46.2734 18.5628ZM92.7886 101.232C85.8975 100.613 79.0063 99.997 72.1152 99.3846C72.1152 71.8915 72.1152 44.3984 72.1152 16.9053C79.0063 16.4659 85.8975 16.0299 92.7886 15.5972C92.7886 44.1354 92.7886 72.6803 92.7886 101.232ZM118.562 41.8288C118.562 32.5557 118.562 23.2726 118.562 13.9795C140.107 12.6282 161.652 11.2802 183.197 9.93546C161.652 21.0658 140.107 31.6969 118.562 41.8288ZM183.197 9.93546C183.197 20.2138 183.197 30.492 183.197 40.7703C175.918 40.8902 168.639 41.01 161.36 41.1298C161.36 63.1709 161.36 85.2319 161.36 107.313C154.469 106.701 147.578 106.091 140.687 105.486C140.687 84.1169 140.687 62.7781 140.687 41.4693C133.312 41.5891 125.937 41.709 118.562 41.8288C118.562 32.5557 118.562 23.2726 118.562 13.9795C140.107 12.6282 161.652 11.2802 183.197 9.93546ZM228.942 7.06966C233.437 6.78008 237.404 8.02825 240.835 10.8142C244.318 13.64 247.001 17.754 248.89 23.1461C250.824 28.4783 251.791 34.7791 251.791 41.9886C251.791 42.1816 251.791 42.3813 251.791 42.5877C251.791 50.3963 250.824 57.1164 248.89 62.7282C247.001 68.3 244.341 72.454 240.91 75.19C237.48 77.876 233.49 79.1242 228.942 78.9445C221.904 78.6649 214.867 78.3853 207.83 78.1057C207.83 89.2028 207.83 100.307 207.83 111.417C200.939 110.811 194.048 110.202 187.156 109.59C187.156 76.2651 187.156 42.9638 187.156 9.68583C201.085 8.81377 215.013 7.94171 228.942 7.06966ZM224.876 50.7857C225.269 50.7857 226.403 50.7857 228.292 50.7857C230.226 50.7857 231.556 50.1466 232.281 48.8984C233.052 47.5404 233.437 45.5234 233.437 42.8273C233.437 40.1213 233.097 38.2041 232.425 37.0757C231.798 35.9274 230.921 35.2284 229.81 34.9688C228.745 34.6992 227.105 34.5994 224.876 34.6593C224.131 34.6792 223.383 34.6959 222.632 34.7092C221.181 34.839 216.247 34.9988 207.83 35.2085C207.83 40.4075 207.83 45.6066 207.83 50.8057C213.492 50.799 219.151 50.7923 224.808 50.7857C224.834 50.7857 224.856 50.7857 224.876 50.7857ZM308.114 76.4381C297.45 76.112 286.786 75.7791 276.122 75.4396C276.122 79.3872 276.122 83.3314 276.122 87.2723C288.816 87.7316 301.51 88.1843 314.204 88.6303C314.204 99.4079 314.204 110.162 314.204 120.893C294.619 119.136 275.034 117.385 255.448 115.641C255.448 78.8413 255.448 42.0917 255.448 5.39211C275.034 4.14061 294.619 2.87579 314.204 1.59766C314.229 12.2288 314.255 22.8965 314.28 33.6008C301.56 33.9403 288.841 34.2698 276.122 34.5894C276.122 38.2107 276.122 41.8388 276.122 45.4735C286.786 45.3603 297.45 45.2438 308.114 45.124C308.114 55.5554 308.114 65.9934 308.114 76.4381ZM338.958 42.4479C347.421 42.4213 355.884 42.4412 364.346 42.5078C364.346 28.3885 364.346 14.3224 364.346 0.309548C371.238 0.762219 378.129 1.21489 385.02 1.66756C385.02 41.2696 385.02 80.9815 385.02 120.803C378.129 121.416 371.238 122.018 364.346 122.611C364.346 108.012 364.346 93.4 364.346 78.7747C355.884 78.8879 347.421 78.9212 338.958 78.8746C338.958 93.5731 338.958 108.282 338.958 123C332.067 122.447 325.176 121.865 318.285 121.253C318.285 81.1579 318.285 41.1831 318.285 1.32806C325.176 0.875386 332.067 0.4327 338.958 0C338.958 14.1127 338.958 28.262 338.958 42.4479ZM464.608 113.694C457.717 114.306 450.826 114.918 443.935 115.531C442.459 110.092 440.983 104.634 439.507 99.1549C429.956 99.794 420.405 100.43 410.854 101.062C409.383 106.993 407.91 112.931 406.434 118.876C399.543 119.495 392.651 120.114 385.76 120.733C395.457 80.8583 405.152 41.8188 414.844 3.61471C421.735 4.05407 428.626 4.49342 435.517 4.93278C445.214 41.8854 454.911 78.139 464.608 113.694ZM425.218 44.2752C422.8 53.6282 420.382 63.0278 417.964 72.4739C422.775 72.3408 427.588 72.2077 432.404 72.0745C430.006 62.8547 427.611 53.5882 425.218 44.2752ZM541.944 55.2192C550.961 71.9813 559.978 88.3973 568.995 104.467C560.824 105.186 552.654 105.908 544.483 106.634C538.096 94.332 531.711 81.8502 525.329 69.1887C525.329 82.223 525.329 95.2706 525.329 108.331C518.437 108.937 511.546 109.546 504.655 110.159C504.655 97.2776 504.655 84.4065 504.655 71.5453C498.54 84.7726 492.422 98.183 486.301 111.776C478.131 112.502 469.96 113.224 461.79 113.943C470.806 94.1123 479.823 74.6474 488.84 55.5487C480.161 39.5321 471.481 23.236 462.802 6.66025C471.048 7.17949 479.294 7.69873 487.541 8.21797C493.243 19.2685 498.948 30.1958 504.655 41C504.655 30.4221 504.655 19.851 504.655 9.28641C511.546 9.71911 518.437 10.1485 525.329 10.5745C525.329 21.3121 525.329 32.0498 525.329 42.7874C531.303 32.2761 537.275 21.9146 543.244 11.7029C551.49 12.2155 559.736 12.7314 567.983 13.2506C559.303 26.9506 550.624 40.9401 541.944 55.2192ZM623.202 68.8792C612.538 69.232 601.874 69.5848 591.21 69.9377C591.21 72.9799 591.21 76.0188 591.21 79.0543C603.904 78.3154 616.598 77.5798 629.293 76.8475C629.293 84.2367 629.293 91.6525 629.293 99.095C609.707 100.846 590.122 102.59 570.537 104.327C570.537 74.0117 570.537 43.706 570.537 13.4104C590.122 14.6352 609.707 15.8701 629.293 17.115C629.318 24.5507 629.343 31.9632 629.368 39.3524C616.649 39.0528 603.929 38.7566 591.21 38.4637C591.21 41.2663 591.21 44.0688 591.21 46.8714C601.874 46.958 612.538 47.0445 623.202 47.131C623.202 54.3804 623.202 61.6298 623.202 68.8792ZM675.15 20.0706C679.646 20.3602 683.613 21.6583 687.051 23.945C690.527 26.1917 693.217 29.1673 695.098 32.8619C697.033 36.4566 698 40.5906 698 45.2737C698 45.4002 698 45.5334 698 45.6732C698 50.7358 697.033 55.1094 695.098 58.8039C693.217 62.5185 690.557 65.3544 687.119 67.3415C683.689 69.3485 679.699 70.4669 675.15 70.6466C668.113 70.9329 661.078 71.2224 654.046 71.5153C654.046 79.9164 654.046 88.364 654.046 96.8583C647.155 97.484 640.264 98.1064 633.373 98.7255C633.373 71.6052 633.373 44.4882 633.373 17.3746C647.296 18.2666 661.222 19.1653 675.15 20.0706ZM671.093 51.0054C671.478 51.0054 672.612 51.0054 674.501 51.0054C676.435 51.0153 677.765 50.576 678.49 49.7172C679.261 48.7886 679.646 47.4006 679.646 45.5434C679.646 43.6761 679.314 42.348 678.634 41.5392C678.007 40.7204 677.138 40.2012 676.019 39.9715C674.961 39.7418 673.314 39.602 671.093 39.5421C670.342 39.5288 669.592 39.5122 668.841 39.4922C667.39 39.5122 662.456 39.4223 654.046 39.2026C654.046 43.1302 654.046 47.0545 654.046 50.9754C659.703 50.9887 665.36 50.9987 671.017 51.0054C671.042 51.0054 671.068 51.0054 671.093 51.0054Z" fill="#1C1C1C"/>
</svg>
